<?xml version="1.0" encoding="UTF-8" standalone="no"?>
<!-- Created with Inkscape (http://www.inkscape.org/) -->

<svg
   width="210mm"
   height="297mm"
   viewBox="0 0 210 297"
   version="1.1"
   id="svg1"
   xml:space="preserve"
   xmlns="http://www.w3.org/2000/svg"
   xmlns:svg="http://www.w3.org/2000/svg"
   xmlns:bx="https://boxy-svg.com"><defs
     id="defs1"><style
       bx:fonts="Archivo Black"
       id="style1">@import url(https://fonts.googleapis.com/css2?family=Archivo+Black%3Aital%2Cwght%400%2C400&amp;display=swap);</style></defs><g
     id="layer1"><g
       id="g1"
       transform="matrix(0.5906734,0,0,0.5906734,-21.555772,-51.837954)"><g
         transform="translate(16.284699,101.88978)"
         id="g3"><path
           d="m 192.78,275.25 -0.28,14.25 -19.75,0.27 -19.75,0.27 v 50.28 6.79 l -0.01,4.25 v 1.98 l -0.02,3.88 v 1.8 l -0.02,3.52 -0.01,1.63 -0.02,3.18 -0.02,1.47 -0.03,2.85 -0.01,1.3 -0.04,2.53 -0.02,1.15 -0.04,2.23 -0.02,1.01 -0.05,1.93 -0.03,0.87 -0.05,1.66 -0.03,0.73 -0.13,2.65 -0.08,0.96 -0.17,1.68 -0.09,0.51 -0.2,0.81 -0.11,0.11 -0.27,0.16 -0.28,0.07 -0.65,0.15 -0.46,0.06 -0.99,0.14 -0.6,0.06 -1.26,0.11 -0.72,0.05 -3.1,0.2 -1.76,0.07 -3.63,0.12 -1.86,0.03 -3.74,0.04 -1.75,-0.01 -3.42,-0.04 -1.43,-0.05 -1.39,-0.06 -0.6,-0.04 -1.13,-0.09 -0.45,-0.05 -0.82,-0.11 -0.28,-0.06 -0.47,-0.14 -0.07,-0.08 -0.07,-0.33 -0.05,-0.48 -0.02,-0.36 -0.04,-0.8 -0.02,-0.52 -0.04,-1.11 -0.02,-0.66 -0.04,-1.41 -0.02,-0.8 -0.04,-1.67 -0.02,-0.94 -0.06,-3.98 -0.03,-2.33 -0.06,-4.88 -0.03,-2.73 -0.04,-5.64 -0.02,-3.05 -0.03,-6.26 -0.01,-3.3 -0.01,-6.73 V 290.04 L 100.25,289.77 80.5,289.5 79.95,261 h 113.1 m 4.86,-78.98 9.77,0.44 5.98,0.75 2.84,0.64 5.62,1.44 2.8,1.01 5.62,2.21 2.95,1.43 3.78,1.89 2.14,1.15 0.89,0.54 1.68,1.05 0.68,0.5 1.27,1 0.49,0.5 0.91,1 0.33,0.52 0.6,1.05 0.2,0.56 0.33,1.15 0.09,0.63 0.12,1.3 v 0.72 l -0.39,4.05 -0.67,2.38 -0.55,1.05 -1.24,2.03 -0.86,0.91 -1.86,1.75 -1.17,0.8 -3.57,1.84 -2.37,0.58 -1.26,-0.03 -2.6,-0.27 -1.46,-0.46 -1.49,-0.52 -0.81,-0.34 -1.64,-0.74 -0.89,-0.44 -3.61,-1.74 -2.27,-0.98 -1.09,-0.42 -4.26,-1.44 -2.16,-0.45 -4.4,-0.72 -2.47,-0.14 -2.52,-0.1 h -1.38 l -2.82,0.02 -1.55,0.06 -3.5,0.14 -1.98,0.1 -0.86,0.07 -3.09,0.31 -1.31,0.29 -2.55,0.67 -1.4,0.53 -1.44,0.58 -0.82,0.35 -1.7,0.75 -0.99,0.45 -4.91,2.07 -2.27,0.78 -2.19,0.71 -0.91,0.24 -1.67,0.41 -0.55,0.05 -2.86,-0.05 -1.83,-0.37 -0.87,-0.34 -1.68,-0.77 -0.78,-0.53 -1.49,-1.13 -0.66,-0.68 -1.27,-1.44 -0.52,-0.83 -0.99,-1.71 -0.38,-0.94 -0.66,-1.93 -0.2,-1.04 -0.31,-2.11 v -1.11 l 0.11,-2.07 0.19,-1.23 0.18,-0.56 0.42,-1.08 0.31,-0.51 0.71,-1 0.47,-0.49 1.04,-0.97 0.67,-0.5 1.45,-1 0.89,-0.54 1.9,-1.1 1.14,-0.6 2.42,-1.25 1.42,-0.71 8.62,-3.75 5.57,-1.87 2.82,-0.64 5.72,-1.1 3.07,-0.29 3.1,-0.26 1.63,-0.07 3.31,-0.1 m 7.91,-61.46 3.76,0.02 1.62,0.03 3.09,0.06 1.35,0.05 2.58,0.11 1.16,0.08 4.32,0.39 2.03,0.31 4.1,0.72 2.42,0.51 9.93,2.41 6.45,1.87 3.15,1.08 6.25,2.24 3.07,1.27 6.09,2.64 3,1.47 5.97,3.04 2.95,1.69 5.87,3.47 2.92,1.9 5.82,3.91 2.9,2.13 5.8,4.37 2.9,2.37 3.66,3.1 2.22,2 0.94,0.9 1.73,1.72 0.6,0.67 0.55,0.64 0.19,0.26 0.34,0.48 0.08,0.17 1.03,3.52 0.18,2.38 -0.15,1.17 -0.44,2.32 -0.42,1.1 -0.99,2.16 -0.68,0.99 -1.46,1.9 -0.89,0.81 -1.87,1.54 -1.06,0.59 -2.21,1.07 -1.21,0.32 -2.47,0.5 h -1.31 l -3.26,-0.23 -1,-0.26 -0.53,-0.22 -1.1,-0.51 -0.64,-0.38 -1.35,-0.86 -0.82,-0.58 -1.75,-1.27 -1.06,-0.83 -2.29,-1.78 -1.39,-1.12 -2.96,-2.38 -1.78,-1.44 -7.03,-5.22 -4.97,-3.27 -2.61,-1.52 -5.29,-2.95 -2.75,-1.35 -5.55,-2.61 -2.85,-1.17 -5.75,-2.25 -2.93,-0.98 -5.88,-1.86 -2.98,-0.77 -5.96,-1.45 -2.99,-0.56 -5.98,-1 -2.98,-0.33 -13.13,-0.83 -8.7,0.08 -4.3,0.35 -8.58,0.91 -4.23,0.75 -8.4,1.72 -4.12,1.16 -8.19,2.51 -3.99,1.55 -7.9,3.29 -3.84,1.94 -7.58,4.06 -3.65,2.32 -7.21,4.81 -3.44,2.69 -7.2,5.52 -2.13,1.59 -0.86,0.63 -1.57,1.14 -0.48,0.33 -2.24,1.45 -1.02,0.47 -1.98,0.8 -0.96,0.17 -1.92,0.18 -1.01,-0.12 -2.04,-0.39 -1.15,-0.4 -4.51,-2.31 -2.44,-2.05 -0.91,-1.25 -1.62,-2.62 -0.48,-1.5 -0.72,-3.11 v -1.71 l 0.5,-3.49 0.42,-1.11 0.3,-0.55 0.66,-1.12 0.44,-0.59 0.94,-1.19 0.59,-0.63 1.27,-1.31 0.76,-0.71 1.62,-1.47 0.96,-0.81 2.02,-1.69 1.17,-0.94 8.53,-6.54 5.67,-4.02 2.84,-1.84 5.69,-3.59 2.87,-1.64 5.76,-3.17 2.91,-1.44 5.86,-2.78 2.99,-1.25 6.01,-2.41 3.07,-1.07 6.21,-2.06 3.18,-0.9 6.44,-1.73 3.32,-0.75 3.62,-0.79 2.17,-0.43 1.04,-0.18 4.06,-0.61 2.29,-0.18 2.36,-0.16 1.34,-0.06 2.8,-0.1 1.63,-0.03 3.43,-0.05 2.02,-0.02 4.24,-0.02 2.5,-0.01 m 0,-68.95 12.83,0.29 8.31,0.48 4.06,0.39 8.06,0.87 3.96,0.59 7.88,1.28 3.9,0.8 7.78,1.7 3.88,1.01 7.76,2.14 3.89,1.24 7.81,2.6 3.95,1.47 7.93,3.07 4.05,1.71 8.67,4.01 6.01,3.1 3.07,1.73 6.2,3.57 3.13,1.94 6.27,3.98 3.11,2.11 6.21,4.29 3.05,2.24 6.03,4.52 2.91,2.32 5.73,4.68 2.72,2.37 5.31,4.74 2.45,2.37 2.33,2.27 1.28,1.28 0.52,0.54 0.96,1.03 0.37,0.45 0.69,0.85 0.25,0.38 0.8,1.43 0.17,0.71 0.19,1.45 v 0.92 l -0.24,2.87 -0.37,1.87 -0.29,0.91 -0.64,1.78 -0.41,0.85 -0.89,1.67 -0.54,0.78 -1.12,1.53 -0.64,0.71 -1.34,1.36 -0.74,0.61 -1.53,1.17 -0.84,0.5 -1.71,0.95 -0.91,0.38 -2.72,1.01 -1.65,0.44 -0.79,0.08 -1.55,0.07 -0.78,-0.13 -1.59,-0.36 -0.86,-0.35 -1.76,-0.84 -0.99,-0.62 -2.06,-1.38 -1.2,-0.91 -2.5,-1.96 -1.46,-1.23 -3.08,-2.62 -1.8,-1.57 -11.23,-9.32 -7.51,-5.72 -3.78,-2.63 -7.57,-5.09 -3.83,-2.32 -7.67,-4.48 -3.89,-2.02 -7.81,-3.9 -3.97,-1.73 -7.98,-3.32 -4.07,-1.45 -8.2,-2.77 -4.19,-1.18 -8.45,-2.24 -4.33,-0.92 -15.07,-2.8 -9.62,-1.37 -4.5,-0.42 -4.45,-0.38 -2.13,-0.13 -4.2,-0.2 -1.99,-0.04 -3.92,-0.02 -1.84,0.06 -3.61,0.15 -1.67,0.15 -4.85,0.52 -3.54,0.46 -1.88,0.29 -7.79,1.24 -4.07,0.77 -8.17,1.63 -3.93,0.89 -3.88,0.91 -1.84,0.46 -3.61,0.93 -1.67,0.47 -10.93,3.44 -7.23,2.66 -3.59,1.5 -7.15,3.13 -3.53,1.74 -7.04,3.59 -3.46,1.96 -6.9,4.04 -3.4,2.17 -6.74,4.47 -3.3,2.39 -6.55,4.88 -3.2,2.59 -6.35,5.29 -3.08,2.79 -3.65,3.16 -2.41,1.97 -1.11,0.84 -2.13,1.58 -0.86,0.58 -0.82,0.53 -0.35,0.2 -0.65,0.36 -0.24,0.1 -3.1,1.08 -1.49,0.17 -2.94,0.11 -1.43,-0.32 -2.85,-0.88 -1.41,-0.81 -2.81,-1.87 -1.42,-1.32 -1.87,-2.06 -1.09,-1.54 -0.47,-0.83 -1.64,-3.44 -0.45,-1.79 -0.39,-1.79 -0.09,-0.87 -0.12,-1.74 0.05,-0.82 0.17,-1.61 0.2,-0.74 0.48,-1.42 0.36,-0.62 0.9,-1.28 0.87,-1.02 0.54,-0.59 1.18,-1.23 0.69,-0.68 1.44,-1.41 0.82,-0.76 3.49,-3.17 2.03,-1.74 4.23,-3.58 2.29,-1.86 4.69,-3.76 2.42,-1.87 4.88,-3.71 2.42,-1.77 4.8,-3.47 2.28,-1.55 4.45,-2.99 2.01,-1.24 14.84,-8.54 10,-5.11 5.05,-2.27 10.15,-4.34 5.14,-1.88 10.31,-3.57 5.22,-1.5 10.49,-2.81 5.32,-1.12 10.68,-2.06 5.42,-0.74 10.89,-1.3 5.52,-0.36 11.11,-0.55 z"
           fill="#165d98"
           id="path1" /><path
           d="m 322.5,392.5 -13,0.29 -5.22,0.07 h -3.23 l -1.37,-0.03 -2.57,-0.06 -0.92,-0.05 -0.85,-0.05 -0.32,-0.03 -0.55,-0.07 -0.15,-0.03 -0.76,-0.49 -0.71,-0.66 -0.45,-0.51 -0.99,-1.13 -0.59,-0.75 -1.26,-1.6 -0.74,-0.99 -1.54,-2.08 -0.88,-1.23 -1.83,-2.57 -1.03,-1.47 -2.13,-3.06 -1.17,-1.72 -2.43,-3.56 -1.32,-1.97 -4.78,-7.1 -2.97,-4.42 -1.39,-2.05 -2.7,-4.01 -1.25,-1.86 -2.45,-3.62 -1.12,-1.67 -2.2,-3.25 -1.01,-1.49 -1.96,-2.89 -0.9,-1.32 -1.73,-2.56 -0.79,-1.15 -1.53,-2.24 -0.68,-1.01 -1.33,-1.93 -0.59,-0.86 -1.14,-1.65 -0.5,-0.73 -0.97,-1.38 -0.41,-0.6 -0.8,-1.14 -0.35,-0.48 -1.22,-1.69 -0.41,-0.54 -0.69,-0.88 -0.19,-0.19 -0.42,-0.15 -0.23,0.29 -0.1,0.39 -0.18,0.97 -0.07,0.8 -0.13,1.83 -0.05,1.3 -0.05,1.36 -0.02,0.78 -0.04,1.65 -0.01,0.93 -0.04,1.95 -0.01,1.1 -0.02,2.27 -0.01,1.27 -0.02,2.63 v 1.45 l -0.02,2.99 v 1.64 l -0.01,3.39 v 1.85 3.79 2.07 5.08 l -0.01,3.18 -0.01,1.49 -0.02,5.69 -0.02,2.47 -0.05,4.68 -0.03,1.99 -0.08,3.74 -0.05,1.54 -0.1,2.86 -0.06,1.14 -0.13,2.06 -0.08,0.76 -0.16,1.33 -0.09,0.42 -0.2,0.67 -0.11,0.11 -0.31,0.21 -0.29,0.09 -0.67,0.18 -0.45,0.08 -2.08,0.29 -1.38,0.11 -2.95,0.18 -1.66,0.05 -3.43,0.08 h -1.75 l -3.51,-0.04 -1.64,-0.05 -3.19,-0.14 -1.34,-0.11 -1.29,-0.12 -0.56,-0.07 -1.05,-0.14 -0.42,-0.08 -0.77,-0.17 -0.25,-0.1 -0.43,-0.19 -0.07,-0.11 -0.12,-0.57 -0.07,-0.77 -0.04,-0.58 -0.06,-1.3 -0.03,-0.86 -0.06,-1.85 -0.02,-1.13 -0.05,-2.42 -0.02,-1.43 -0.04,-3.01 -0.01,-1.74 -0.03,-3.62 -0.01,-2.04 -0.02,-4.25 -0.01,-2.36 -0.01,-4.9 -0.01,-2.69 v -5.56 -3.04 -6.25 l 0.01,-3.39 0.01,-6.95 0.01,-3.75 0.02,-7.68 0.02,-4.11 0.02,-8.43 0.02,-4.49 0.04,-9.19 0.02,-4.89 0.05,-9.97 0.02,-5.28 L 208,261 h 32.79 l 14.46,21.25 3.12,4.58 2.18,3.22 1.13,1.66 4.57,6.73 2.24,3.31 2.23,3.29 1.07,1.58 2.1,3.11 0.98,1.45 1.92,2.83 0.86,1.28 1.65,2.45 0.71,1.05 4.07,5.88 1.25,1.73 0.57,0.79 1.13,1.51 0.5,0.65 0.97,1.24 0.41,0.51 0.79,0.93 0.31,0.34 0.56,0.59 0.2,0.15 0.32,0.2 0.05,-0.05 0.18,-0.89 0.11,-1.28 0.06,-0.95 0.11,-2.1 0.05,-1.32 0.11,-2.82 0.05,-1.65 0.09,-3.44 0.05,-1.91 0.08,-3.96 0.04,-2.14 0.07,-4.38 0.03,-2.32 0.05,-4.7 0.02,-2.44 0.26,-35.46 30.51,-0.55 z"
           fill="#2c9afb"
           id="path2" /></g><text
         style="font-weight:700;font-size:50px;font-family:'Archivo Black';white-space:pre;fill:#104f84"
         x="75.487"
         y="547.86102"
         id="text3">TEK NEWS</text></g></g></svg>
