<?xml version="1.0" encoding="UTF-8" standalone="no"?>
<svg
   version="1.1"
   id="svg2"
   width="300"
   height="150"
   xmlns="http://www.w3.org/2000/svg"
   xmlns:svg="http://www.w3.org/2000/svg">
  <defs
     id="defs2" />
  <path
     d="m 143.15949,98.408374 -0.12121,6.212026 -8.54602,0.11773 -8.54601,0.11771 v 21.91867 2.9599 l -0.0124,1.85273 v 0.86314 l -0.0124,1.69145 v 0.78463 l -0.0124,1.53453 -0.0124,0.71054 -0.0124,1.38627 -0.0124,0.64082 -0.0129,1.24244 -0.0124,0.56671 -0.0171,1.10291 -0.0124,0.50127 -0.0168,0.97217 -0.0124,0.44029 -0.0219,0.84131 -0.0126,0.37933 -0.0219,0.72357 -0.0126,0.31822 -0.0562,1.15523 -0.0346,0.41849 -0.0743,0.7324 -0.0397,0.22237 -0.0862,0.35309 -0.0476,0.0483 -0.11687,0.0697 -0.1212,0.0313 -0.28121,0.0656 -0.19919,0.0262 -0.42854,0.0606 -0.25938,0.0264 -0.54536,0.0484 -0.31171,0.0219 -1.34134,0.0874 -0.76154,0.0311 -1.57069,0.0523 -0.80472,0.013 -1.61822,0.0171 -0.75761,-0.0112 -1.47955,-0.0172 -0.61901,-0.0219 -0.60118,-0.0262 -0.25983,-0.0171 -0.4891,-0.0396 -0.19443,-0.0219 -0.35484,-0.0484 -0.12121,-0.0261 -0.20354,-0.0605 -0.0312,-0.0346 -0.0313,-0.14387 -0.0214,-0.20926 -0.0112,-0.15689 -0.0172,-0.34871 -0.0112,-0.22677 -0.0169,-0.48386 -0.0112,-0.28768 -0.0172,-0.61471 -0.0112,-0.34876 -0.0173,-0.72795 -0.0112,-0.40979 -0.0262,-1.73504 -0.013,-1.0157 -0.0255,-2.12737 -0.0128,-1.19008 -0.0174,-2.45867 -0.0112,-1.32955 -0.0126,-2.72895 -0.0102,-1.43859 -0.0102,-2.93377 v -23.67312 l -8.50541,-0.11764 -8.546017,-0.11773 -0.238251,-12.424015 h 48.941188 m 2.10296,-34.429946 4.22769,0.191825 2.58771,0.326952 1.22887,0.278971 2.43158,0.627788 1.21152,0.440246 2.43204,0.963414 1.27637,0.623405 1.63564,0.823902 0.92591,0.501341 0.38535,0.235375 0.72667,0.457738 0.29429,0.217971 0.54971,0.435916 0.21186,0.217982 0.39411,0.435932 0.14251,0.226696 0.25989,0.457738 0.0861,0.244076 0.14291,0.501348 0.0391,0.274631 0.052,0.566695 v 0.313869 l -0.16858,1.765561 -0.28993,1.037492 -0.23801,0.457766 -0.53666,0.884912 -0.37185,0.396707 -0.80517,0.762869 -0.50611,0.348755 -1.54498,0.802112 -1.02531,0.25285 -0.54533,-0.01326 -1.1251,-0.117721 -0.63176,-0.200515 -0.64469,-0.226688 -0.35046,-0.148208 -0.7097,-0.322609 -0.38496,-0.191818 -1.56195,-0.758526 -0.98254,-0.427179 -0.47179,-0.183116 -1.84305,-0.627748 -0.93465,-0.196172 -1.90416,-0.313873 -1.0684,-0.06078 -1.09074,-0.04345 h -0.59675 l -1.22071,0.009 -0.67044,0.02608 -1.51443,0.06072 -0.8571,0.04344 -0.37175,0.0308 -1.33754,0.135147 -0.56661,0.126426 -1.1034,0.292047 -0.60584,0.231042 -0.62295,0.252864 -0.35486,0.152557 -0.73544,0.326932 -0.42852,0.196193 -2.12471,0.902376 -0.9822,0.340034 -0.94768,0.309503 -0.3937,0.104657 -0.72282,0.178714 -0.23795,0.02214 -1.23754,-0.02214 -0.79174,-0.161293 -0.37668,-0.148207 -0.72656,-0.33567 -0.33747,-0.231079 -0.64473,-0.492595 -0.28605,-0.296395 -0.54921,-0.627757 -0.22498,-0.361811 -0.42851,-0.745478 -0.16434,-0.409762 -0.28555,-0.841375 -0.0869,-0.453327 -0.13427,-0.919847 v -0.48389 l 0.0486,-0.902385 0.0819,-0.536203 0.0782,-0.244111 0.18172,-0.470787 0.13427,-0.22238 0.30693,-0.435925 0.20355,-0.213561 0.44986,-0.422865 0.28992,-0.217979 0.62726,-0.435932 0.38537,-0.235407 0.82222,-0.479504 0.49305,-0.261566 1.04751,-0.544927 0.61421,-0.309499 3.72985,-1.634771 2.41025,-0.815188 1.22019,-0.278985 2.47527,-0.479521 1.32826,-0.126453 1.34133,-0.113291 0.70534,-0.03109 1.43244,-0.04348 m 3.423,-26.792374 1.62691,0.0087 0.70095,0.01316 1.33702,0.0261 0.58415,0.02202 1.11644,0.04835 0.50172,0.03454 1.86928,0.170032 0.87845,0.135132 1.77421,0.313882 1.04712,0.222309 4.29695,1.05059 2.79085,0.815189 1.36317,0.470809 2.70445,0.97649 1.32832,0.553638 2.6352,1.150884 1.29822,0.640803 2.58331,1.325226 1.27643,0.736725 2.54021,1.512692 1.26329,0.828273 2.51835,1.704525 1.25464,0.928499 2.51011,1.904998 1.25461,1.033194 1.58373,1.351379 0.9608,0.871852 0.40674,0.392353 0.74848,0.749779 0.25983,0.292102 0.238,0.27898 0.0819,0.113366 0.14741,0.209242 0.0343,0.07413 0.4455,1.534453 0.0782,1.037523 -0.065,0.51003 -0.19055,1.011362 -0.18132,0.47953 -0.42858,0.941629 -0.29418,0.431582 -0.63168,0.828241 -0.38529,0.353127 -0.80912,0.671323 -0.45862,0.257193 -0.95639,0.466448 -0.52358,0.139499 -1.06884,0.217964 h -0.56675 l -1.41064,-0.100261 -0.4325,-0.113366 -0.2297,-0.09588 -0.47556,-0.222291 -0.27733,-0.165657 -0.58412,-0.374935 -0.35483,-0.252848 -0.75726,-0.55362 -0.45848,-0.361824 -0.99098,-0.775954 -0.60161,-0.488242 -1.28076,-1.037501 -0.77026,-0.627766 -3.04197,-2.275564 -2.15045,-1.425524 -1.12948,-0.662601 -2.28911,-1.285992 -1.1897,-0.588519 -2.40148,-1.137806 -1.23326,-0.510011 -2.48829,-0.980849 -1.26771,-0.427186 -2.5445,-0.810833 -1.28958,-0.33568 -2.57839,-0.632113 -1.29398,-0.244118 -2.58759,-0.43593 -1.2895,-0.143849 -5.68153,-0.361834 -3.76467,0.03481 -1.86059,0.152576 -3.7128,0.396707 -1.83003,0.326948 -3.63483,0.749802 -1.78297,0.505674 -3.54367,1.094183 -1.72667,0.675708 -3.41862,1.434215 -1.66143,0.84573 -3.27996,1.769866 -1.57935,1.011363 -3.11995,2.096849 -1.48818,1.172626 -3.1157,2.40638 -0.92156,0.693081 -0.37226,0.274678 -0.67962,0.496957 -0.20749,0.143842 -0.96907,0.632101 -0.44166,0.20489 -0.85658,0.348758 -0.41543,0.07411 -0.83084,0.07852 -0.4373,-0.05195 -0.882276,-0.170038 -0.49785,-0.174353 L 97.429037,59.595851 96.37326,58.702162 95.979599,58.15725 95.278611,57.015122 95.071112,56.361244 94.759416,55.005495 V 54.26014 l 0.216223,-1.521406 0.181778,-0.483883 0.129913,-0.239766 0.285544,-0.48822 0.190495,-0.257188 0.406721,-0.518799 0.25544,-0.274649 0.549311,-0.571057 0.329138,-0.309491 0.700962,-0.640831 0.415002,-0.353082 0.874424,-0.736733 0.506161,-0.409798 3.691072,-2.851006 2.4534,-1.752409 1.22883,-0.802138 2.46223,-1.564996 1.24194,-0.714935 2.49231,-1.381902 1.25933,-0.627719 2.53538,-1.21191 1.29383,-0.544903 2.60077,-1.05061 1.32826,-0.466444 2.68706,-0.898012 1.37627,-0.392334 2.78659,-0.754169 1.4368,-0.326942 1.56622,-0.344373 0.93901,-0.187472 0.44989,-0.0785 1.75681,-0.265889 0.99087,-0.0785 1.02142,-0.06956 0.57983,-0.02609 1.21147,-0.04349 0.70525,-0.01316 1.48433,-0.0221 0.87401,-0.0087 1.83488,-0.0087 1.08156,-0.0082 m 0,-30.05752805 5.55161,0.12643815 3.59602,0.209215 1.7567,0.1700443 3.48756,0.3793037 1.7136,0.257169 3.40984,0.5579876 1.68756,0.3487726 3.36623,0.741063 1.67924,0.4402743 3.35752,0.9328996 1.68359,0.5405571 3.37933,1.1334066 1.70929,0.6408213 3.4312,1.3383714 1.75248,0.7454243 3.75168,1.7481081 2.60067,1.351339 1.32834,0.7542 2.68278,1.556256 1.35443,0.845733 2.71313,1.734958 1.34574,0.919844 2.6872,1.87017 1.31949,0.976438 2.60953,1.970461 1.25886,1.011342 2.47956,2.040149 1.17706,1.033185 2.29786,2.0663 1.06016,1.033191 1.0079,0.989548 0.55406,0.557946 0.22489,0.235408 0.41551,0.44903 0.15996,0.196192 0.29857,0.370505 0.10792,0.165672 0.34621,0.62345 0.0744,0.309462 0.0821,0.632072 v 0.401145 l -0.10397,1.251125 -0.16001,0.815183 -0.12552,0.39668 -0.27683,0.775959 -0.17737,0.370522 -0.38493,0.728037 -0.23365,0.340043 -0.48485,0.666944 -0.27674,0.309548 -0.57979,0.592875 -0.3204,0.265881 -0.66232,0.510015 -0.36305,0.218053 -0.74022,0.414058 -0.39362,0.165676 -1.17702,0.440302 -0.71411,0.191792 -0.34179,0.03462 -0.67078,0.03102 -0.33742,-0.05688 -0.68796,-0.156975 -0.3722,-0.152627 -0.76166,-0.366087 -0.42805,-0.270319 -0.89156,-0.601629 -0.51915,-0.396621 -1.08198,-0.854463 -0.63163,-0.536242 -1.33262,-1.142098 -0.77905,-0.684389 -4.85933,-4.062882 -3.2494,-2.493529 -1.63611,-1.14652 -3.27553,-2.21888 -1.65701,-1.011412 -3.31915,-1.952942 -1.68319,-0.880565 -3.37932,-1.700151 -1.71804,-0.754166 -3.45301,-1.447296 -1.76122,-0.632068 -3.54796,-1.207562 -1.81302,-0.514445 -3.65667,-0.976454 -1.87359,-0.401047 -6.52073,-1.220611 -4.16261,-0.597249 -1.94728,-0.183091 -1.92557,-0.165638 -0.92157,-0.05687 -1.81739,-0.08725 -0.86136,-0.01699 -1.69633,-0.009 -0.79594,0.02608 -1.56202,0.06557 -0.72268,0.06554 -2.09869,0.226655 -1.53187,0.200559 -0.81339,0.126427 -3.37104,0.540546 -1.76115,0.335688 -3.53502,0.710565 -1.70057,0.387943 -1.6788,0.396741 -0.79639,0.200487 -1.5619,0.405379 -0.72281,0.204852 -4.72944,1.499695 -3.12865,1.15961 -1.55326,0.653876 -3.09381,1.364441 -1.52753,0.758525 -3.04631,1.564956 -1.49736,0.854445 -2.985771,1.761166 -1.47081,0.945941 -2.916851,1.948683 -1.427746,1.04179 -2.834435,2.127346 -1.38452,1.129041 -2.747665,2.306132 -1.332652,1.216283 -1.579823,1.377495 -1.042745,0.858807 -0.480401,0.366137 -0.921559,0.688703 -0.371846,0.252961 -0.354845,0.230962 -0.151713,0.08727 -0.281174,0.156851 -0.103739,0.0435 -1.341371,0.470819 -0.644738,0.07408 -1.272479,0.04835 -0.607546,-0.139486 -1.228222,-0.383621 -0.610079,-0.353103 -1.216244,-0.81515 -0.614235,-0.575407 -0.809082,-0.898031 -0.471687,-0.671339 -0.203717,-0.361903 -0.709695,-1.499598 -0.194418,-0.780379 -0.169149,-0.780264 -0.03874,-0.37924 -0.05186,-0.758537 0.02183,-0.357506 0.07321,-0.701745 0.08673,-0.322667 0.2075,-0.619073 0.156069,-0.270197 0.389284,-0.55793 0.376648,-0.444714 0.233656,-0.257219 0.510476,-0.536177 0.298616,-0.296405 0.622943,-0.614642 0.354849,-0.33137 1.510074,-1.381888 0.878403,-0.758541 1.830475,-1.560599 0.990872,-0.810866 2.029265,-1.639141 1.047547,-0.815114 2.111655,-1.61737 1.047108,-0.771545 2.076778,-1.512702 0.986512,-0.675751 1.925513,-1.303398 0.870127,-0.540549 6.42129,-3.722889 4.327077,-2.227539 2.18528,-0.9895779 4.392,-1.8920139 2.22416,-0.8195434 4.46089,-1.5562147 2.25908,-0.6539107 4.53879,-1.2249595 2.30223,-0.4882731 4.62117,-0.8980288 2.34546,-0.3225451 4.71237,-0.5667473 2.38853,-0.156905 4.80745,-0.23978954 z"
     fill="#165d98"
     id="path1"
     style="stroke-width:0.435932" />
  <path
     d="m 200.25213,149.5214 -5.66703,0.12639 -2.27558,0.0311 h -1.4081 l -0.59723,-0.0129 -1.12029,-0.0262 -0.40106,-0.0219 -0.37053,-0.0218 -0.1395,-0.0129 -0.23976,-0.0312 -0.0657,-0.0129 -0.33126,-0.21365 -0.30957,-0.28773 -0.19614,-0.22231 -0.43159,-0.4926 -0.25717,-0.32701 -0.54927,-0.69741 -0.32265,-0.4316 -0.67127,-0.90671 -0.38369,-0.53625 -0.79771,-1.12033 -0.44902,-0.64083 -0.92862,-1.33392 -0.50989,-0.74982 -1.05934,-1.55187 -0.57547,-0.85883 -2.08373,-3.09514 -1.29476,-1.92676 -0.60598,-0.89366 -1.17693,-1.74813 -0.54494,-0.81078 -1.06801,-1.57812 -0.48827,-0.72801 -0.95907,-1.41676 -0.44031,-0.64955 -0.85438,-1.25979 -0.39241,-0.57551 -0.75405,-1.11599 -0.34444,-0.50127 -0.66694,-0.97652 -0.29644,-0.44031 -0.57981,-0.84131 -0.25721,-0.37491 -0.49698,-0.7193 -0.21788,-0.31819 -0.42297,-0.60164 -0.1787,-0.26153 -0.34866,-0.49698 -0.15262,-0.20924 -0.5318,-0.73671 -0.17879,-0.23541 -0.30081,-0.38363 -0.0827,-0.0827 -0.18302,-0.0657 -0.10005,0.12648 -0.044,0.17 -0.0783,0.42285 -0.0311,0.34869 -0.0571,0.79778 -0.0219,0.56676 -0.0221,0.59284 -0.0124,0.34003 -0.0174,0.7193 -0.0124,0.40542 -0.0169,0.85 -0.0124,0.47958 -0.0124,0.98957 -0.0124,0.55366 -0.0124,1.14648 v 0.63207 l -0.0124,1.3035 v 0.71486 l -0.0124,1.47781 v 0.80651 1.65216 0.90237 2.21456 l -0.0124,1.38628 -0.0124,0.64951 -0.0124,2.48046 -0.0124,1.07677 -0.0221,2.04017 -0.0128,0.86751 -0.0345,1.63037 -0.0219,0.67132 -0.044,1.24674 -0.0265,0.49698 -0.0571,0.89808 -0.0347,0.33126 -0.0698,0.57975 -0.0396,0.18311 -0.0875,0.29212 -0.0486,0.0483 -0.13509,0.0917 -0.12643,0.0396 -0.29214,0.0788 -0.19613,0.0346 -0.90671,0.12636 -0.60155,0.0485 -1.28605,0.0789 -0.72366,0.0218 -1.49526,0.0347 h -0.76091 l -1.53008,-0.0173 -0.71499,-0.0218 -1.39058,-0.0606 -0.58416,-0.0485 -0.56231,-0.0522 -0.24418,-0.031 -0.45772,-0.0605 -0.18312,-0.0345 -0.33562,-0.0744 -0.10903,-0.044 -0.18745,-0.0828 -0.0311,-0.0485 -0.0523,-0.24846 -0.0312,-0.33568 -0.0171,-0.25282 -0.0264,-0.56676 -0.0129,-0.37491 -0.0263,-0.80642 -0.0124,-0.49265 -0.0219,-1.05495 -0.0124,-0.62337 -0.017,-1.31216 -0.0124,-0.75855 -0.013,-1.57807 -0.0124,-0.8893 -0.0124,-1.85271 -0.0124,-1.02876 -0.0124,-2.13612 -0.0124,-1.17262 v -2.42375 -1.32524 -2.72458 l 0.0124,-1.47783 0.0124,-3.02971 0.0124,-1.63477 0.0124,-3.34795 0.0124,-1.79166 0.0124,-3.67494 0.0124,-1.95731 0.0171,-4.00621 0.0124,-2.13173 0.022,-4.346244 0.0124,-2.301729 0.0263,-5.340118 h 14.29425 l 6.30356,9.263491 1.36013,1.99659 0.95033,1.40371 0.49262,0.72363 1.99222,2.93385 0.97648,1.44294 0.97212,1.4342 0.46645,0.68879 0.91546,1.3557 0.42719,0.63213 0.837,1.23372 0.37492,0.55797 0.71929,1.06805 0.3095,0.45768 1.77426,2.56332 0.54488,0.75417 0.24849,0.34432 0.4926,0.65832 0.21799,0.28337 0.42284,0.54055 0.17875,0.22234 0.34438,0.40534 0.13512,0.14825 0.24418,0.25717 0.0874,0.0658 0.13948,0.0874 0.022,-0.022 0.0781,-0.38798 0.0487,-0.558 0.0263,-0.41406 0.0487,-0.91555 0.0221,-0.57535 0.0486,-1.22935 0.0217,-0.71932 0.0397,-1.49953 0.022,-0.83271 0.0345,-1.72628 0.0171,-0.93288 0.0311,-1.90942 0.0129,-1.01131 0.022,-2.04888 0.0124,-1.06368 0.11351,-15.45815 13.3002,-0.239772 z"
     fill="#2c9afb"
     id="path2"
     style="stroke-width:0.435932" />
</svg>
