<?xml version="1.0" encoding="utf-8"?>
<svg xmlns="http://www.w3.org/2000/svg" xmlns:bx="https://boxy-svg.com">
  <defs>
    <style bx:fonts="Archivo Black">@import url(https://fonts.googleapis.com/css2?family=Archivo+Black%3Aital%2Cwght%400%2C400&amp;display=swap);</style>
  </defs>
  <g transform="matrix(1, 0, 0, 1, 16.752, 96.5937)">
    <path d="M 192.78,275.25 L 192.50,289.50 L 172.75,289.77 L 153.00,290.04 L 153.00,340.32 L 153.00,347.11 L 152.99,351.36 L 152.99,353.34 L 152.97,357.22 L 152.97,359.02 L 152.95,362.54 L 152.94,364.17 L 152.92,367.35 L 152.90,368.82 L 152.87,371.67 L 152.86,372.97 L 152.82,375.50 L 152.80,376.65 L 152.76,378.88 L 152.74,379.89 L 152.69,381.82 L 152.66,382.69 L 152.61,384.35 L 152.58,385.08 L 152.45,387.73 L 152.37,388.69 L 152.20,390.37 L 152.11,390.88 L 151.91,391.69 L 151.80,391.80 L 151.53,391.96 L 151.25,392.03 L 150.60,392.18 L 150.14,392.24 L 149.15,392.38 L 148.55,392.44 L 147.29,392.55 L 146.57,392.60 L 143.47,392.80 L 141.71,392.87 L 138.08,392.99 L 136.22,393.02 L 132.48,393.06 L 130.73,393.05 L 127.31,393.01 L 125.88,392.96 L 124.49,392.90 L 123.89,392.86 L 122.76,392.77 L 122.31,392.72 L 121.49,392.61 L 121.21,392.55 L 120.74,392.41 L 120.67,392.33 L 120.60,392.00 L 120.55,391.52 L 120.53,391.16 L 120.49,390.36 L 120.47,389.84 L 120.43,388.73 L 120.41,388.07 L 120.37,386.66 L 120.35,385.86 L 120.31,384.19 L 120.29,383.25 L 120.23,379.27 L 120.20,376.94 L 120.14,372.06 L 120.11,369.33 L 120.07,363.69 L 120.05,360.64 L 120.02,354.38 L 120.01,351.08 L 120.00,344.35 L 120.00,290.04 L 100.25,289.77 L 80.50,289.50 L 79.95,261.00 L 193.05,261.00 M 197.91,182.02 L 207.68,182.46 L 213.66,183.21 L 216.50,183.85 L 222.12,185.29 L 224.92,186.30 L 230.54,188.51 L 233.49,189.94 L 237.27,191.83 L 239.41,192.98 L 240.30,193.52 L 241.98,194.57 L 242.66,195.07 L 243.93,196.07 L 244.42,196.57 L 245.33,197.57 L 245.66,198.09 L 246.26,199.14 L 246.46,199.70 L 246.79,200.85 L 246.88,201.48 L 247.00,202.78 L 247.00,203.50 L 246.61,207.55 L 245.94,209.93 L 245.39,210.98 L 244.15,213.01 L 243.29,213.92 L 241.43,215.67 L 240.26,216.47 L 236.69,218.31 L 234.32,218.89 L 233.06,218.86 L 230.46,218.59 L 229.00,218.13 L 227.51,217.61 L 226.70,217.27 L 225.06,216.53 L 224.17,216.09 L 220.56,214.35 L 218.29,213.37 L 217.20,212.95 L 212.94,211.51 L 210.78,211.06 L 206.38,210.34 L 203.91,210.20 L 201.39,210.10 L 200.01,210.10 L 197.19,210.12 L 195.64,210.18 L 192.14,210.32 L 190.16,210.42 L 189.30,210.49 L 186.21,210.80 L 184.90,211.09 L 182.35,211.76 L 180.95,212.29 L 179.51,212.87 L 178.69,213.22 L 176.99,213.97 L 176.00,214.42 L 171.09,216.49 L 168.82,217.27 L 166.63,217.98 L 165.72,218.22 L 164.05,218.63 L 163.50,218.68 L 160.64,218.63 L 158.81,218.26 L 157.94,217.92 L 156.26,217.15 L 155.48,216.62 L 153.99,215.49 L 153.33,214.81 L 152.06,213.37 L 151.54,212.54 L 150.55,210.83 L 150.17,209.89 L 149.51,207.96 L 149.31,206.92 L 149.00,204.81 L 149.00,203.70 L 149.11,201.63 L 149.30,200.40 L 149.48,199.84 L 149.90,198.76 L 150.21,198.25 L 150.92,197.25 L 151.39,196.76 L 152.43,195.79 L 153.10,195.29 L 154.55,194.29 L 155.44,193.75 L 157.34,192.65 L 158.48,192.05 L 160.90,190.80 L 162.32,190.09 L 170.94,186.34 L 176.51,184.47 L 179.33,183.83 L 185.05,182.73 L 188.12,182.44 L 191.22,182.18 L 192.85,182.11 L 196.16,182.01 M 204.07,120.55 L 207.83,120.57 L 209.45,120.60 L 212.54,120.66 L 213.89,120.71 L 216.47,120.82 L 217.63,120.90 L 221.95,121.29 L 223.98,121.60 L 228.08,122.32 L 230.50,122.83 L 240.43,125.24 L 246.88,127.11 L 250.03,128.19 L 256.28,130.43 L 259.35,131.70 L 265.44,134.34 L 268.44,135.81 L 274.41,138.85 L 277.36,140.54 L 283.23,144.01 L 286.15,145.91 L 291.97,149.82 L 294.87,151.95 L 300.67,156.32 L 303.57,158.69 L 307.23,161.79 L 309.45,163.79 L 310.39,164.69 L 312.12,166.41 L 312.72,167.08 L 313.27,167.72 L 313.46,167.98 L 313.80,168.46 L 313.88,168.63 L 314.91,172.15 L 315.09,174.53 L 314.94,175.70 L 314.50,178.02 L 314.08,179.12 L 313.09,181.28 L 312.41,182.27 L 310.95,184.17 L 310.06,184.98 L 308.19,186.52 L 307.13,187.11 L 304.92,188.18 L 303.71,188.50 L 301.24,189.00 L 299.93,189.00 L 296.67,188.77 L 295.67,188.51 L 295.14,188.29 L 294.04,187.78 L 293.40,187.40 L 292.05,186.54 L 291.23,185.96 L 289.48,184.69 L 288.42,183.86 L 286.13,182.08 L 284.74,180.96 L 281.78,178.58 L 280.00,177.14 L 272.97,171.92 L 268.00,168.65 L 265.39,167.13 L 260.10,164.18 L 257.35,162.83 L 251.80,160.22 L 248.95,159.05 L 243.20,156.80 L 240.27,155.82 L 234.39,153.96 L 231.41,153.19 L 225.45,151.74 L 222.46,151.18 L 216.48,150.18 L 213.50,149.85 L 200.37,149.02 L 191.67,149.10 L 187.37,149.45 L 178.79,150.36 L 174.56,151.11 L 166.16,152.83 L 162.04,153.99 L 153.85,156.50 L 149.86,158.05 L 141.96,161.34 L 138.12,163.28 L 130.54,167.34 L 126.89,169.66 L 119.68,174.47 L 116.24,177.16 L 109.04,182.68 L 106.91,184.27 L 106.05,184.90 L 104.48,186.04 L 104.00,186.37 L 101.76,187.82 L 100.74,188.29 L 98.76,189.09 L 97.80,189.26 L 95.88,189.44 L 94.87,189.32 L 92.83,188.93 L 91.68,188.53 L 87.17,186.22 L 84.73,184.17 L 83.82,182.92 L 82.20,180.30 L 81.72,178.80 L 81.00,175.69 L 81.00,173.98 L 81.50,170.49 L 81.92,169.38 L 82.22,168.83 L 82.88,167.71 L 83.32,167.12 L 84.26,165.93 L 84.85,165.30 L 86.12,163.99 L 86.88,163.28 L 88.50,161.81 L 89.46,161.00 L 91.48,159.31 L 92.65,158.37 L 101.18,151.83 L 106.85,147.81 L 109.69,145.97 L 115.38,142.38 L 118.25,140.74 L 124.01,137.57 L 126.92,136.13 L 132.78,133.35 L 135.77,132.10 L 141.78,129.69 L 144.85,128.62 L 151.06,126.56 L 154.24,125.66 L 160.68,123.93 L 164.00,123.18 L 167.62,122.39 L 169.79,121.96 L 170.83,121.78 L 174.89,121.17 L 177.18,120.99 L 179.54,120.83 L 180.88,120.77 L 183.68,120.67 L 185.31,120.64 L 188.74,120.59 L 190.76,120.57 L 195.00,120.55 L 197.50,120.54 M 197.50,51.59 L 210.33,51.88 L 218.64,52.36 L 222.70,52.75 L 230.76,53.62 L 234.72,54.21 L 242.60,55.49 L 246.50,56.29 L 254.28,57.99 L 258.16,59.00 L 265.92,61.14 L 269.81,62.38 L 277.62,64.98 L 281.57,66.45 L 289.50,69.52 L 293.55,71.23 L 302.22,75.24 L 308.23,78.34 L 311.30,80.07 L 317.50,83.64 L 320.63,85.58 L 326.90,89.56 L 330.01,91.67 L 336.22,95.96 L 339.27,98.20 L 345.30,102.72 L 348.21,105.04 L 353.94,109.72 L 356.66,112.09 L 361.97,116.83 L 364.42,119.20 L 366.75,121.47 L 368.03,122.75 L 368.55,123.29 L 369.51,124.32 L 369.88,124.77 L 370.57,125.62 L 370.82,126.00 L 371.62,127.43 L 371.79,128.14 L 371.98,129.59 L 371.98,130.51 L 371.74,133.38 L 371.37,135.25 L 371.08,136.16 L 370.44,137.94 L 370.03,138.79 L 369.14,140.46 L 368.60,141.24 L 367.48,142.77 L 366.84,143.48 L 365.50,144.84 L 364.76,145.45 L 363.23,146.62 L 362.39,147.12 L 360.68,148.07 L 359.77,148.45 L 357.05,149.46 L 355.40,149.90 L 354.61,149.98 L 353.06,150.05 L 352.28,149.92 L 350.69,149.56 L 349.83,149.21 L 348.07,148.37 L 347.08,147.75 L 345.02,146.37 L 343.82,145.46 L 341.32,143.50 L 339.86,142.27 L 336.78,139.65 L 334.98,138.08 L 323.75,128.76 L 316.24,123.04 L 312.46,120.41 L 304.89,115.32 L 301.06,113.00 L 293.39,108.52 L 289.50,106.50 L 281.69,102.60 L 277.72,100.87 L 269.74,97.55 L 265.67,96.10 L 257.47,93.33 L 253.28,92.15 L 244.83,89.91 L 240.50,88.99 L 225.43,86.19 L 215.81,84.82 L 211.31,84.40 L 206.86,84.02 L 204.73,83.89 L 200.53,83.69 L 198.54,83.65 L 194.62,83.63 L 192.78,83.69 L 189.17,83.84 L 187.50,83.99 L 182.65,84.51 L 179.11,84.97 L 177.23,85.26 L 169.44,86.50 L 165.37,87.27 L 157.20,88.90 L 153.27,89.79 L 149.39,90.70 L 147.55,91.16 L 143.94,92.09 L 142.27,92.56 L 131.34,96.00 L 124.11,98.66 L 120.52,100.16 L 113.37,103.29 L 109.84,105.03 L 102.80,108.62 L 99.34,110.58 L 92.44,114.62 L 89.04,116.79 L 82.30,121.26 L 79.00,123.65 L 72.45,128.53 L 69.25,131.12 L 62.90,136.41 L 59.82,139.20 L 56.17,142.36 L 53.76,144.33 L 52.65,145.17 L 50.52,146.75 L 49.66,147.33 L 48.84,147.86 L 48.49,148.06 L 47.84,148.42 L 47.60,148.52 L 44.50,149.60 L 43.01,149.77 L 40.07,149.88 L 38.64,149.56 L 35.79,148.68 L 34.38,147.87 L 31.57,146.00 L 30.15,144.68 L 28.28,142.62 L 27.19,141.08 L 26.72,140.25 L 25.08,136.81 L 24.63,135.02 L 24.24,133.23 L 24.15,132.36 L 24.03,130.62 L 24.08,129.80 L 24.25,128.19 L 24.45,127.45 L 24.93,126.03 L 25.29,125.41 L 26.19,124.13 L 27.06,123.11 L 27.60,122.52 L 28.78,121.29 L 29.47,120.61 L 30.91,119.20 L 31.73,118.44 L 35.22,115.27 L 37.25,113.53 L 41.48,109.95 L 43.77,108.09 L 48.46,104.33 L 50.88,102.46 L 55.76,98.75 L 58.18,96.98 L 62.98,93.51 L 65.26,91.96 L 69.71,88.97 L 71.72,87.73 L 86.56,79.19 L 96.56,74.08 L 101.61,71.81 L 111.76,67.47 L 116.90,65.59 L 127.21,62.02 L 132.43,60.52 L 142.92,57.71 L 148.24,56.59 L 158.92,54.53 L 164.34,53.79 L 175.23,52.49 L 180.75,52.13 L 191.86,51.58 Z" fill="rgb(22,93,152)"/>
    <path d="M 322.50,392.50 L 309.50,392.79 L 304.28,392.86 L 301.05,392.86 L 299.68,392.83 L 297.11,392.77 L 296.19,392.72 L 295.34,392.67 L 295.02,392.64 L 294.47,392.57 L 294.32,392.54 L 293.56,392.05 L 292.85,391.39 L 292.40,390.88 L 291.41,389.75 L 290.82,389.00 L 289.56,387.40 L 288.82,386.41 L 287.28,384.33 L 286.40,383.10 L 284.57,380.53 L 283.54,379.06 L 281.41,376.00 L 280.24,374.28 L 277.81,370.72 L 276.49,368.75 L 271.71,361.65 L 268.74,357.23 L 267.35,355.18 L 264.65,351.17 L 263.40,349.31 L 260.95,345.69 L 259.83,344.02 L 257.63,340.77 L 256.62,339.28 L 254.66,336.39 L 253.76,335.07 L 252.03,332.51 L 251.24,331.36 L 249.71,329.12 L 249.03,328.11 L 247.70,326.18 L 247.11,325.32 L 245.97,323.67 L 245.47,322.94 L 244.50,321.56 L 244.09,320.96 L 243.29,319.82 L 242.94,319.34 L 241.72,317.65 L 241.31,317.11 L 240.62,316.23 L 240.43,316.04 L 240.01,315.89 L 239.78,316.18 L 239.68,316.57 L 239.50,317.54 L 239.43,318.34 L 239.30,320.17 L 239.25,321.47 L 239.20,322.83 L 239.18,323.61 L 239.14,325.26 L 239.13,326.19 L 239.09,328.14 L 239.08,329.24 L 239.06,331.51 L 239.05,332.78 L 239.03,335.41 L 239.03,336.86 L 239.01,339.85 L 239.01,341.49 L 239.00,344.88 L 239.00,346.73 L 239.00,350.52 L 239.00,352.59 L 239.00,357.67 L 238.99,360.85 L 238.98,362.34 L 238.96,368.03 L 238.94,370.50 L 238.89,375.18 L 238.86,377.17 L 238.78,380.91 L 238.73,382.45 L 238.63,385.31 L 238.57,386.45 L 238.44,388.51 L 238.36,389.27 L 238.20,390.60 L 238.11,391.02 L 237.91,391.69 L 237.80,391.80 L 237.49,392.01 L 237.20,392.10 L 236.53,392.28 L 236.08,392.36 L 234.00,392.65 L 232.62,392.76 L 229.67,392.94 L 228.01,392.99 L 224.58,393.07 L 222.83,393.07 L 219.32,393.03 L 217.68,392.98 L 214.49,392.84 L 213.15,392.73 L 211.86,392.61 L 211.30,392.54 L 210.25,392.40 L 209.83,392.32 L 209.06,392.15 L 208.81,392.05 L 208.38,391.86 L 208.31,391.75 L 208.19,391.18 L 208.12,390.41 L 208.08,389.83 L 208.02,388.53 L 207.99,387.67 L 207.93,385.82 L 207.91,384.69 L 207.86,382.27 L 207.84,380.84 L 207.80,377.83 L 207.79,376.09 L 207.76,372.47 L 207.75,370.43 L 207.73,366.18 L 207.72,363.82 L 207.71,358.92 L 207.70,356.23 L 207.70,350.67 L 207.70,347.63 L 207.70,341.38 L 207.71,337.99 L 207.72,331.04 L 207.73,327.29 L 207.75,319.61 L 207.77,315.50 L 207.79,307.07 L 207.81,302.58 L 207.85,293.39 L 207.87,288.50 L 207.92,278.53 L 207.94,273.25 L 208.00,261.00 L 240.79,261.00 L 255.25,282.25 L 258.37,286.83 L 260.55,290.05 L 261.68,291.71 L 266.25,298.44 L 268.49,301.75 L 270.72,305.04 L 271.79,306.62 L 273.89,309.73 L 274.87,311.18 L 276.79,314.01 L 277.65,315.29 L 279.30,317.74 L 280.01,318.79 L 284.08,324.67 L 285.33,326.40 L 285.90,327.19 L 287.03,328.70 L 287.53,329.35 L 288.50,330.59 L 288.91,331.10 L 289.70,332.03 L 290.01,332.37 L 290.57,332.96 L 290.77,333.11 L 291.09,333.31 L 291.14,333.26 L 291.32,332.37 L 291.43,331.09 L 291.49,330.14 L 291.60,328.04 L 291.65,326.72 L 291.76,323.90 L 291.81,322.25 L 291.90,318.81 L 291.95,316.90 L 292.03,312.94 L 292.07,310.80 L 292.14,306.42 L 292.17,304.10 L 292.22,299.40 L 292.24,296.96 L 292.50,261.50 L 323.01,260.95 Z" fill="rgb(44,154,251)"/>
    <path d="M 292.21,427.92 L 292.08,429.05 L 291.98,430.30 L 291.98,430.90 L 291.70,432.29 L 291.04,433.97 L 290.76,434.41 L 290.35,434.83 L 290.26,434.88 L 290.06,434.76 L 289.97,434.66 L 289.75,434.21 L 289.64,433.94 L 289.38,433.08 L 289.24,432.60 L 288.90,431.27 L 288.72,430.55 L 288.28,428.68 L 287.46,425.20 L 285.76,417.90 L 287.47,424.89 L 288.35,428.13 L 288.87,429.69 L 289.12,430.20 L 289.60,431.04 L 289.84,431.22 L 290.33,431.43 L 290.59,431.33 L 291.59,430.55 L 292.00,429.81 L 292.00,429.44 L 292.09,428.52 L 292.22,427.59 L 292.32,427.01 L 292.79,424.44 L 292.31,427.26 M 61.17,137.97 L 62.90,136.41 L 63.60,135.83 M 102.04,109.09 L 99.08,110.79 L 93.14,114.29 L 90.10,116.20 L 85.77,118.98 L 83.07,120.76 L 81.80,121.63 L 82.30,121.26 L 89.04,116.79 L 92.44,114.62 L 99.34,110.58 L 102.80,108.62 L 106.75,106.61 M 112.26,103.84 L 113.37,103.29 L 114.64,102.74 M 281.69,102.60 L 283.96,103.74 L 281.34,102.45 M 244.83,89.91 L 253.28,92.15 L 257.47,93.33 L 265.67,96.10 L 269.74,97.55 L 277.72,100.87 L 279.38,101.60 L 276.99,100.58 L 268.80,97.25 L 264.58,95.78 L 256.04,92.98 L 251.62,91.75 L 243.22,89.57 M 122.36,99.39 L 124.11,98.66 L 125.32,98.21 M 130.31,96.38 L 131.34,96.00 L 132.77,95.55 M 198.54,83.65 L 200.53,83.69 L 204.73,83.89 L 206.86,84.02 L 211.31,84.40 L 215.81,84.82 L 225.43,86.19 L 226.75,86.44 L 226.18,86.35 L 223.67,86.13 L 221.09,85.92 L 219.65,85.83 L 216.65,85.67 L 214.95,85.60 L 211.38,85.47 L 209.31,85.42 L 205.00,85.31 L 202.50,85.25 L 198.67,85.17 L 196.32,85.13 L 195.24,85.11 L 191.17,85.05 L 189.45,85.04 L 186.18,85.04 L 184.76,85.07 L 182.05,85.15 L 180.83,85.22 L 176.19,85.58 L 173.79,85.93 L 171.34,86.30 L 169.98,86.54 L 167.15,87.04 L 165.50,87.34 L 154.55,89.56 L 147.63,91.17 L 144.34,92.06 L 139.84,93.32 L 142.27,92.56 L 143.94,92.09 L 147.55,91.16 L 149.39,90.70 L 153.27,89.79 L 157.20,88.90 L 165.37,87.27 L 169.44,86.50 L 177.23,85.26 L 179.11,84.97 L 182.65,84.51 L 187.50,83.99 L 189.17,83.84 L 192.78,83.69 L 194.62,83.63 Z" fill="rgb(132,171,208)"/>
  </g>
  <text style="fill: rgb(16, 79, 132); font-family: &quot;Archivo Black&quot;; font-size: 50px; font-weight: 700; white-space: pre;" x="75.487" y="547.861">TEK NEWS</text>
</svg>