<?xml version="1.0" encoding="utf-8"?>
<svg xmlns="http://www.w3.org/2000/svg">
  <path d="M 208.285 371.844 L 208.007 386.094 L 188.403 386.364 L 168.799 386.634 L 168.799 436.914 L 168.799 443.704 L 168.789 447.954 L 168.789 449.934 L 168.769 453.814 L 168.769 455.614 L 168.749 459.134 L 168.739 460.764 L 168.719 463.944 L 168.7 465.414 L 168.67 468.264 L 168.66 469.564 L 168.62 472.094 L 168.6 473.244 L 168.561 475.474 L 168.541 476.484 L 168.491 478.414 L 168.461 479.284 L 168.412 480.944 L 168.382 481.674 L 168.253 484.324 L 168.174 485.284 L 168.005 486.964 L 167.915 487.474 L 167.717 488.284 L 167.608 488.394 L 167.34 488.554 L 167.062 488.624 L 166.417 488.774 L 165.96 488.834 L 164.977 488.974 L 164.382 489.034 L 163.131 489.144 L 162.416 489.194 L 159.339 489.394 L 157.592 489.464 L 153.989 489.584 L 152.143 489.614 L 148.431 489.654 L 146.693 489.644 L 143.299 489.604 L 141.879 489.554 L 140.5 489.494 L 139.904 489.454 L 138.782 489.364 L 138.336 489.314 L 137.522 489.204 L 137.244 489.144 L 136.777 489.004 L 136.708 488.924 L 136.638 488.594 L 136.589 488.114 L 136.569 487.754 L 136.529 486.954 L 136.509 486.434 L 136.47 485.324 L 136.45 484.664 L 136.41 483.254 L 136.39 482.454 L 136.35 480.784 L 136.331 479.844 L 136.271 475.864 L 136.241 473.534 L 136.182 468.654 L 136.152 465.924 L 136.112 460.284 L 136.092 457.234 L 136.063 450.974 L 136.053 447.674 L 136.043 440.944 L 136.043 386.634 L 116.439 386.364 L 96.835 386.094 L 96.289 357.594 L 208.553 357.594 M 213.377 278.614 L 223.075 279.054 L 229.011 279.804 L 231.83 280.444 L 237.408 281.884 L 240.187 282.894 L 245.766 285.104 L 248.694 286.534 L 252.446 288.424 L 254.57 289.574 L 255.454 290.114 L 257.121 291.164 L 257.796 291.664 L 259.057 292.664 L 259.543 293.164 L 260.447 294.164 L 260.774 294.684 L 261.37 295.734 L 261.568 296.294 L 261.896 297.444 L 261.985 298.074 L 262.104 299.374 L 262.104 300.094 L 261.717 304.144 L 261.052 306.524 L 260.506 307.574 L 259.275 309.604 L 258.422 310.514 L 256.575 312.264 L 255.414 313.064 L 251.87 314.904 L 249.518 315.484 L 248.267 315.454 L 245.686 315.184 L 244.237 314.724 L 242.758 314.204 L 241.954 313.864 L 240.326 313.124 L 239.443 312.684 L 235.86 310.944 L 233.606 309.964 L 232.524 309.544 L 228.296 308.104 L 226.152 307.654 L 221.784 306.934 L 219.333 306.794 L 216.831 306.694 L 215.462 306.694 L 212.662 306.714 L 211.124 306.774 L 207.65 306.914 L 205.684 307.014 L 204.831 307.084 L 201.763 307.394 L 200.463 307.684 L 197.932 308.354 L 196.542 308.884 L 195.113 309.464 L 194.299 309.814 L 192.612 310.564 L 191.629 311.014 L 186.755 313.084 L 184.502 313.864 L 182.328 314.574 L 181.425 314.814 L 179.767 315.224 L 179.221 315.274 L 176.382 315.224 L 174.566 314.854 L 173.702 314.514 L 172.035 313.744 L 171.261 313.214 L 169.782 312.084 L 169.126 311.404 L 167.866 309.964 L 167.35 309.134 L 166.367 307.424 L 165.99 306.484 L 165.335 304.554 L 165.136 303.514 L 164.828 301.404 L 164.828 300.294 L 164.938 298.224 L 165.126 296.994 L 165.305 296.434 L 165.722 295.354 L 166.03 294.844 L 166.734 293.844 L 167.201 293.354 L 168.233 292.384 L 168.898 291.884 L 170.337 290.884 L 171.221 290.344 L 173.107 289.244 L 174.238 288.644 L 176.641 287.394 L 178.05 286.684 L 186.606 282.934 L 192.135 281.064 L 194.934 280.424 L 200.612 279.324 L 203.659 279.034 L 206.736 278.774 L 208.354 278.704 L 211.64 278.604 M 219.492 217.144 L 223.224 217.164 L 224.832 217.194 L 227.899 217.254 L 229.239 217.304 L 231.8 217.414 L 232.951 217.494 L 237.239 217.884 L 239.254 218.194 L 243.324 218.914 L 245.726 219.424 L 255.583 221.834 L 261.985 223.704 L 265.112 224.784 L 271.316 227.024 L 274.363 228.294 L 280.408 230.934 L 283.386 232.404 L 289.312 235.444 L 292.24 237.134 L 298.067 240.604 L 300.965 242.504 L 306.742 246.414 L 309.62 248.544 L 315.378 252.914 L 318.256 255.284 L 321.889 258.384 L 324.093 260.384 L 325.026 261.284 L 326.743 263.004 L 327.339 263.674 L 327.885 264.314 L 328.073 264.574 L 328.411 265.054 L 328.49 265.224 L 329.512 268.744 L 329.691 271.124 L 329.542 272.294 L 329.105 274.614 L 328.689 275.714 L 327.706 277.874 L 327.031 278.864 L 325.582 280.764 L 324.698 281.574 L 322.842 283.114 L 321.79 283.704 L 319.596 284.774 L 318.395 285.094 L 315.943 285.594 L 314.643 285.594 L 311.407 285.364 L 310.415 285.104 L 309.888 284.884 L 308.797 284.374 L 308.161 283.994 L 306.821 283.134 L 306.007 282.554 L 304.27 281.284 L 303.218 280.454 L 300.945 278.674 L 299.565 277.554 L 296.627 275.174 L 294.86 273.734 L 287.882 268.514 L 282.949 265.244 L 280.358 263.724 L 275.107 260.774 L 272.378 259.424 L 266.869 256.814 L 264.04 255.644 L 258.332 253.394 L 255.424 252.414 L 249.587 250.554 L 246.629 249.784 L 240.714 248.334 L 237.746 247.774 L 231.81 246.774 L 228.852 246.444 L 215.819 245.614 L 207.183 245.694 L 202.915 246.044 L 194.398 246.954 L 190.2 247.704 L 181.862 249.424 L 177.772 250.584 L 169.643 253.094 L 165.682 254.644 L 157.84 257.934 L 154.029 259.874 L 146.505 263.934 L 142.882 266.254 L 135.725 271.064 L 132.311 273.754 L 125.164 279.274 L 123.05 280.864 L 122.196 281.494 L 120.637 282.634 L 120.161 282.964 L 117.938 284.414 L 116.925 284.884 L 114.96 285.684 L 114.007 285.854 L 112.101 286.034 L 111.098 285.914 L 109.074 285.524 L 107.932 285.124 L 103.455 282.814 L 101.033 280.764 L 100.13 279.514 L 98.522 276.894 L 98.046 275.394 L 97.331 272.284 L 97.331 270.574 L 97.827 267.084 L 98.244 265.974 L 98.542 265.424 L 99.197 264.304 L 99.634 263.714 L 100.567 262.524 L 101.153 261.894 L 102.413 260.584 L 103.168 259.874 L 104.776 258.404 L 105.728 257.594 L 107.734 255.904 L 108.895 254.964 L 117.362 248.424 L 122.99 244.404 L 125.809 242.564 L 131.457 238.974 L 134.306 237.334 L 140.023 234.164 L 142.912 232.724 L 148.728 229.944 L 151.696 228.694 L 157.662 226.284 L 160.709 225.214 L 166.873 223.154 L 170.03 222.254 L 176.422 220.524 L 179.718 219.774 L 183.311 218.984 L 185.465 218.554 L 186.497 218.374 L 190.527 217.764 L 192.8 217.584 L 195.143 217.424 L 196.473 217.364 L 199.252 217.264 L 200.87 217.234 L 204.275 217.184 L 206.28 217.164 L 210.489 217.144 L 212.97 217.134 M 212.97 148.184 L 225.705 148.474 L 233.954 148.954 L 237.984 149.344 L 245.984 150.214 L 249.915 150.804 L 257.737 152.084 L 261.608 152.884 L 269.33 154.584 L 273.182 155.594 L 280.884 157.734 L 284.746 158.974 L 292.498 161.574 L 296.419 163.044 L 304.29 166.114 L 308.31 167.824 L 316.916 171.834 L 322.882 174.934 L 325.929 176.664 L 332.083 180.234 L 335.19 182.174 L 341.414 186.154 L 344.501 188.264 L 350.665 192.554 L 353.692 194.794 L 359.678 199.314 L 362.566 201.634 L 368.254 206.314 L 370.954 208.684 L 376.225 213.424 L 378.657 215.794 L 380.969 218.064 L 382.24 219.344 L 382.756 219.884 L 383.709 220.914 L 384.076 221.364 L 384.761 222.214 L 385.009 222.594 L 385.803 224.024 L 385.972 224.734 L 386.161 226.184 L 386.161 227.104 L 385.922 229.974 L 385.555 231.844 L 385.267 232.754 L 384.632 234.534 L 384.225 235.384 L 383.342 237.054 L 382.806 237.834 L 381.694 239.364 L 381.059 240.074 L 379.729 241.434 L 378.994 242.044 L 377.475 243.214 L 376.642 243.714 L 374.944 244.664 L 374.041 245.044 L 371.341 246.054 L 369.703 246.494 L 368.919 246.574 L 367.38 246.644 L 366.606 246.514 L 365.028 246.154 L 364.174 245.804 L 362.427 244.964 L 361.445 244.344 L 359.4 242.964 L 358.209 242.054 L 355.727 240.094 L 354.278 238.864 L 351.221 236.244 L 349.434 234.674 L 338.287 225.354 L 330.833 219.634 L 327.08 217.004 L 319.566 211.914 L 315.765 209.594 L 308.151 205.114 L 304.29 203.094 L 296.538 199.194 L 292.597 197.464 L 284.676 194.144 L 280.636 192.694 L 272.497 189.924 L 268.338 188.744 L 259.95 186.504 L 255.652 185.584 L 240.694 182.784 L 231.145 181.414 L 226.678 180.994 L 222.261 180.614 L 220.147 180.484 L 215.978 180.284 L 214.002 180.244 L 210.111 180.224 L 208.285 180.284 L 204.702 180.434 L 203.044 180.584 L 198.23 181.104 L 194.716 181.564 L 192.85 181.854 L 185.117 183.094 L 181.077 183.864 L 172.968 185.494 L 169.067 186.384 L 165.216 187.294 L 163.389 187.754 L 159.806 188.684 L 158.148 189.154 L 147.299 192.594 L 140.122 195.254 L 136.559 196.754 L 129.462 199.884 L 125.958 201.624 L 118.97 205.214 L 115.535 207.174 L 108.686 211.214 L 105.312 213.384 L 98.621 217.854 L 95.346 220.244 L 88.844 225.124 L 85.668 227.714 L 79.365 233.004 L 76.308 235.794 L 72.684 238.954 L 70.292 240.924 L 69.19 241.764 L 67.076 243.344 L 66.223 243.924 L 65.409 244.454 L 65.061 244.654 L 64.416 245.014 L 64.178 245.114 L 61.101 246.194 L 59.622 246.364 L 56.703 246.474 L 55.284 246.154 L 52.455 245.274 L 51.056 244.464 L 48.266 242.594 L 46.857 241.274 L 45.001 239.214 L 43.919 237.674 L 43.452 236.844 L 41.824 233.404 L 41.378 231.614 L 40.99 229.824 L 40.901 228.954 L 40.782 227.214 L 40.832 226.394 L 41 224.784 L 41.199 224.044 L 41.675 222.624 L 42.033 222.004 L 42.926 220.724 L 43.79 219.704 L 44.326 219.114 L 45.497 217.884 L 46.182 217.204 L 47.611 215.794 L 48.425 215.034 L 51.889 211.864 L 53.904 210.124 L 58.103 206.544 L 60.376 204.684 L 65.031 200.924 L 67.434 199.054 L 72.278 195.344 L 74.68 193.574 L 79.444 190.104 L 81.707 188.554 L 86.124 185.564 L 88.12 184.324 L 102.85 175.784 L 112.776 170.674 L 117.789 168.404 L 127.864 164.064 L 132.966 162.184 L 143.199 158.614 L 148.381 157.114 L 158.793 154.304 L 164.074 153.184 L 174.675 151.124 L 180.055 150.384 L 190.865 149.084 L 196.344 148.724 L 207.372 148.174 L 212.97 148.184 Z" fill="rgb(22,93,152)" style=""/>
  <path d="M 339.252 489.094 L 326.252 489.384 L 321.032 489.454 L 317.802 489.454 L 316.432 489.424 L 313.862 489.364 L 312.942 489.314 L 312.092 489.264 L 311.772 489.234 L 311.222 489.164 L 311.072 489.134 L 310.312 488.644 L 309.602 487.984 L 309.152 487.474 L 308.162 486.344 L 307.572 485.594 L 306.312 483.994 L 305.572 483.004 L 304.032 480.924 L 303.152 479.694 L 301.322 477.124 L 300.292 475.654 L 298.162 472.594 L 296.992 470.874 L 294.562 467.314 L 293.242 465.344 L 288.462 458.244 L 285.492 453.824 L 284.102 451.774 L 281.402 447.764 L 280.152 445.904 L 277.702 442.284 L 276.582 440.614 L 274.382 437.364 L 273.372 435.874 L 271.412 432.984 L 270.512 431.664 L 268.782 429.104 L 267.992 427.954 L 266.462 425.714 L 265.782 424.704 L 264.452 422.774 L 263.862 421.914 L 262.722 420.264 L 262.222 419.534 L 261.252 418.154 L 260.842 417.554 L 260.042 416.414 L 259.692 415.934 L 258.472 414.244 L 258.062 413.704 L 257.372 412.824 L 257.182 412.634 L 256.762 412.484 L 256.532 412.774 L 256.432 413.164 L 256.252 414.134 L 256.182 414.934 L 256.052 416.764 L 256.002 418.064 L 255.952 419.424 L 255.932 420.204 L 255.892 421.854 L 255.882 422.784 L 255.842 424.734 L 255.832 425.834 L 255.812 428.104 L 255.802 429.374 L 255.782 432.004 L 255.782 433.454 L 255.762 436.444 L 255.762 438.084 L 255.752 441.474 L 255.752 443.324 L 255.752 447.114 L 255.752 449.184 L 255.752 454.264 L 255.742 457.444 L 255.732 458.934 L 255.712 464.624 L 255.692 467.094 L 255.642 471.774 L 255.612 473.764 L 255.532 477.504 L 255.482 479.044 L 255.382 481.904 L 255.322 483.044 L 255.192 485.104 L 255.112 485.864 L 254.952 487.194 L 254.862 487.614 L 254.662 488.284 L 254.552 488.394 L 254.242 488.604 L 253.952 488.694 L 253.282 488.874 L 252.832 488.954 L 250.752 489.244 L 249.372 489.354 L 246.422 489.534 L 244.762 489.584 L 241.332 489.664 L 239.582 489.664 L 236.072 489.624 L 234.432 489.574 L 231.242 489.434 L 229.902 489.324 L 228.612 489.204 L 228.052 489.134 L 227.002 488.994 L 226.582 488.914 L 225.812 488.744 L 225.562 488.644 L 225.132 488.454 L 225.062 488.344 L 224.942 487.774 L 224.872 487.004 L 224.832 486.424 L 224.772 485.124 L 224.742 484.264 L 224.682 482.414 L 224.662 481.284 L 224.612 478.864 L 224.592 477.434 L 224.552 474.424 L 224.542 472.684 L 224.512 469.064 L 224.502 467.024 L 224.482 462.774 L 224.472 460.414 L 224.462 455.514 L 224.452 452.824 L 224.452 447.264 L 224.452 444.224 L 224.452 437.974 L 224.462 434.584 L 224.472 427.634 L 224.482 423.884 L 224.502 416.204 L 224.522 412.094 L 224.542 403.664 L 224.562 399.174 L 224.602 389.984 L 224.622 385.094 L 224.672 375.124 L 224.692 369.844 L 224.752 357.594 L 257.542 357.594 L 272.002 378.844 L 275.122 383.424 L 277.302 386.644 L 278.432 388.304 L 283.002 395.034 L 285.242 398.344 L 287.472 401.634 L 288.542 403.214 L 290.642 406.324 L 291.622 407.774 L 293.542 410.604 L 294.402 411.884 L 296.052 414.334 L 296.762 415.384 L 300.832 421.264 L 302.082 422.994 L 302.652 423.784 L 303.782 425.294 L 304.282 425.944 L 305.252 427.184 L 305.662 427.694 L 306.452 428.624 L 306.762 428.964 L 307.322 429.554 L 307.522 429.704 L 307.842 429.904 L 307.892 429.854 L 308.072 428.964 L 308.182 427.684 L 308.242 426.734 L 308.352 424.634 L 308.402 423.314 L 308.512 420.494 L 308.562 418.844 L 308.652 415.404 L 308.702 413.494 L 308.782 409.534 L 308.822 407.394 L 308.892 403.014 L 308.922 400.694 L 308.972 395.994 L 308.992 393.554 L 309.252 358.094 L 339.762 357.544 L 339.252 489.094 Z" fill="rgb(44,154,251)"/>
</svg>