<?xml version="1.0" encoding="UTF-8" standalone="no"?>
<!-- Created with Inkscape (http://www.inkscape.org/) -->

<svg
   width="48"
   height="48"
   viewBox="0 0 48 48"
   version="1.1"
   id="svg1"
   xml:space="preserve"
   xmlns="http://www.w3.org/2000/svg"
   xmlns:svg="http://www.w3.org/2000/svg"><defs
     id="defs1" /><g
     id="layer1"><g
       id="g2"
       transform="matrix(0.44786465,0,0,0.44786465,-42.20419,-26.492358)"><path
         d="m 147.07609,90.988774 -0.13142,6.735062 -9.26558,0.12764 -9.26556,0.12761 v 23.764194 3.20911 l -0.0135,2.00873 v 0.93581 l -0.0135,1.83386 v 0.8507 l -0.0134,1.66373 -0.0135,0.77037 -0.0134,1.50299 -0.0134,0.69477 -0.014,1.34706 -0.0135,0.61442 -0.0186,1.19577 -0.0135,0.54348 -0.0182,1.05402 -0.0135,0.47736 -0.0237,0.91216 -0.0137,0.41126 -0.0237,0.78449 -0.0137,0.34502 -0.0609,1.2525 -0.0375,0.45372 -0.0806,0.79407 -0.043,0.24109 -0.0934,0.38282 -0.0516,0.0524 -0.1267,0.0756 -0.13141,0.0339 -0.30488,0.0711 -0.21597,0.0284 -0.46462,0.0657 -0.28122,0.0286 -0.59128,0.0525 -0.33795,0.0237 -1.45427,0.0947 -0.82567,0.0337 -1.70295,0.0567 -0.87246,0.014 -1.75447,0.0186 -0.8214,-0.0121 -1.60413,-0.0187 -0.67113,-0.0237 -0.6518,-0.0284 -0.2817,-0.0186 -0.53028,-0.0429 -0.2108,-0.0237 -0.38472,-0.0525 -0.13142,-0.0283 -0.22068,-0.0656 -0.0338,-0.0375 -0.034,-0.15598 -0.0232,-0.22688 -0.0121,-0.1701 -0.0187,-0.37807 -0.0121,-0.24587 -0.0183,-0.52459 -0.0121,-0.31191 -0.0186,-0.66647 -0.0121,-0.37812 -0.0187,-0.78924 -0.0121,-0.44429 -0.0284,-1.88114 -0.0142,-1.10121 -0.0277,-2.30649 -0.0138,-1.29028 -0.0188,-2.66569 -0.0121,-1.4415 -0.0136,-2.95871 -0.011,-1.55972 -0.011,-3.18078 V 97.976786 l -9.22155,-0.12754 -9.265577,-0.12764 -0.258311,-13.47009 h 53.061928 m 2.28003,-37.328872 4.58364,0.207976 2.80559,0.35448 1.33235,0.302459 2.63631,0.680647 1.31353,0.477314 2.63681,1.044532 1.38384,0.675894 1.77335,0.893273 1.00387,0.543553 -0.14039,-4.768647 0.78784,0.49628 0.31907,0.236323 0.596,0.472618 0.22969,0.236337 0.4273,0.472636 0.1545,0.245783 0.28178,0.496279 0.0933,0.264627 0.15495,0.54356 0.0424,0.297754 0.0564,0.61441 v 0.340296 l -0.18278,1.914218 1.08117,-3.619891 -1.65356,1.194064 -1.14006,-4.06442 -0.40316,0.430109 -0.87296,0.827101 -0.54873,0.37812 -1.67505,1.009198 -1.11165,0.13459 -0.59125,-0.01438 -1.21982,-0.127634 -0.68496,-0.217397 1.53385,-5.548715 -4.5665,8.072827 0.90516,-0.907977 0.69904,-2.719888 -2.53077,-0.682841 -1.06528,-0.463147 -1.90701,-4.245516 -0.0445,8.390218 -1.01335,-0.21269 -2.06448,-0.3403 -1.15836,-0.0659 -1.18258,-0.0471 h -0.64699 l -1.32349,0.0097 -0.7269,0.02828 -1.64194,0.06584 -0.92926,0.04709 -0.40305,0.03339 -1.45016,0.146527 -0.61431,0.137071 -1.19631,0.316636 -0.65685,0.250495 -1.23361,-4.749685 -0.38474,0.165402 -0.79736,0.35446 3.72193,3.143285 -6.49013,-1.95222 -1.06491,0.368665 -1.02748,0.335563 -0.42685,0.113468 -0.78368,0.193762 -0.25797,0.024 -1.34174,-0.024 -0.85841,-0.174873 -0.40839,-0.160687 -0.78773,-0.363932 -0.36589,-0.250535 -0.69902,-0.534071 14.06364,-1.158657 -14.96922,0.156694 4.77991,4.631564 c 0,0 6.51298,2.680532 0.51228,-0.808245 l -4.22516,-1.142019 -1.70511,3.83252 -0.0942,-0.491496 -0.14558,-0.997296 v -0.524566 l 0.0527,-0.978364 0.0888,-0.58135 0.0848,-0.264666 0.19702,-0.510425 0.14557,-0.241104 0.33277,-0.472629 0.2207,-0.231542 0.48773,-0.45847 0.31433,-0.236333 0.68007,-0.472635 0.41783,-0.255229 1.44964,4.503963 0.53457,-0.28359 1.1357,-0.590809 0.66593,-0.335557 4.04389,-1.772416 2.61319,-0.883826 1.32294,-0.302475 2.68367,-0.519895 1.4401,-0.1371 1.45426,-0.12283 0.76473,-0.03371 1.55305,-0.04714 m 3.71122,-29.048234 1.76389,0.0094 0.75996,0.01427 1.44959,0.0283 0.63334,0.02388 1.21044,0.05242 0.54397,0.03745 2.02667,0.184349 0.95241,0.146509 1.92359,0.34031 1.13529,0.241027 4.65874,1.139047 3.02583,0.883828 1.47795,0.510449 2.93216,1.058708 1.44017,0.600254 2.85707,1.247786 1.40753,0.694756 2.80082,1.436808 1.3839,0.798756 2.75408,1.640056 1.36967,0.898013 2.73038,1.848041 1.36029,1.006677 2.72145,2.065395 1.36025,1.120187 1.71707,1.465162 1.0417,0.945261 0.44099,0.425388 0.81149,0.812908 0.28171,0.316696 0.25804,0.302469 0.0888,0.122912 0.15981,0.22686 0.0371,0.08037 0.48302,1.66365 0.0848,1.124881 -0.0705,0.552972 -0.20659,1.096517 -0.19659,0.519905 -0.46466,1.020913 -0.31895,0.46792 -0.68486,0.897977 -0.41773,0.38286 -0.87725,0.727846 -0.49724,0.278848 -1.03691,0.505722 -0.56767,0.151245 -1.15883,0.236316 h -0.61446 l -1.52942,-0.108703 -0.46892,-0.122912 -0.24904,-0.103952 -0.5156,-0.241008 -0.30068,-0.179605 -0.63331,-0.406504 -0.3847,-0.274137 -0.82102,-0.600233 -0.49708,-0.392289 -1.07442,-0.841288 -0.65226,-0.52935 -1.3886,-1.124857 -0.83511,-0.680622 -3.29811,-2.467162 -2.3315,-1.54555 -1.22458,-0.71839 -2.48186,-1.39427 -1.28986,-0.638071 -2.60368,-1.233607 -1.3371,-0.552953 -2.6978,-1.063434 -1.37445,-0.463155 -2.75874,-0.879103 -1.39816,-0.363942 -2.79548,-0.685336 -1.40293,-0.264673 -2.80546,-0.472634 -1.39808,-0.155961 -6.1599,-0.392299 -4.08165,0.03774 -2.01724,0.165422 -4.02541,0.430109 -1.98411,0.354475 -3.94088,0.812935 -1.9331,0.548251 -3.84203,1.18631 -1.87206,0.732601 -3.70646,1.554974 -1.80131,0.916938 -3.55612,1.918885 -1.71234,1.096517 -3.38264,2.273399 -1.61348,1.271359 -3.37804,2.608992 -0.99915,0.751438 -0.4036,0.297804 -0.73684,0.5388 -0.22496,0.155952 -1.05067,0.685323 -0.47884,0.222142 -0.92871,0.378122 -0.45041,0.08035 -0.90079,0.08512 -0.47413,-0.05633 -0.95655,-0.184356 -0.539769,-0.189033 -2.116115,-1.091795 -1.144672,-0.968936 -0.426807,-0.590792 -0.760009,-1.238293 -0.224971,-0.708933 -0.337939,-1.4699 v -0.808113 l 0.234428,-1.649504 0.197083,-0.524626 0.140852,-0.259954 0.309586,-0.529326 0.206534,-0.278844 0.440967,-0.56248 0.276947,-0.297774 0.595562,-0.619138 0.356851,-0.33555 0.759981,-0.694787 0.449948,-0.382811 0.948048,-0.798765 0.548775,-0.444302 4.00185,-3.091054 2.65997,-1.899959 1.3323,-0.869675 2.66954,-1.696765 1.34651,-0.775132 2.70216,-1.498254 1.36536,-0.680572 2.74886,-1.313951 1.40276,-0.590782 2.81975,-1.139069 1.44009,-0.505718 2.91331,-0.973623 1.49216,-0.425367 3.02121,-0.817668 1.55778,-0.35447 1.69808,-0.373369 1.01808,-0.203256 0.48777,-0.0851 1.90472,-0.288277 1.07431,-0.0851 1.10742,-0.07541 0.62865,-0.02829 1.31346,-0.04714 0.76464,-0.01427 1.60931,-0.02396 0.9476,-0.0094 1.98936,-0.0094 1.17264,-0.0088 m 0,-32.588307 6.01903,0.137084 3.89881,0.226831 1.9046,0.184361 3.78121,0.411241 1.85788,0.278822 3.69695,0.604969 1.82965,0.378138 3.64965,0.803459 1.82064,0.477344 3.64022,1.011448 1.82534,0.5860709 3.66386,1.2288369 1.85321,0.6947772 3.72009,1.4510594 1.90003,0.8081869 4.06757,1.8952945 2.81963,1.4651199 1.44019,0.8177019 2.90866,1.68728932 1.46847,0.91694208 2.94157,1.8810372 1.45905,0.997293 2.91347,2.0276342 1.43058,1.058653 2.82925,2.136369 1.36485,1.0964936 2.68833,2.211927 1.27617,1.120176 2.49133,2.240278 1.14943,1.120184 1.09277,1.072866 0.6007,0.604923 0.24383,0.255229 0.45049,0.486837 0.17343,0.21271 0.32371,0.401702 0.117,0.179621 0.37537,0.675943 0.0807,0.335518 0.089,0.685292 v 0.43492 l -0.11272,1.356467 -0.17349,0.883819 -0.13609,0.43008 -0.30013,0.841292 -0.19231,0.401721 -0.41734,0.789336 -0.25333,0.368674 -0.52568,0.723098 -0.30003,0.335612 -0.62861,0.642793 -0.34737,0.288269 -0.71809,0.552956 -0.39361,0.236413 -0.80256,0.44892 -0.42675,0.179626 -1.27614,0.477374 -0.77422,0.207941 -0.37058,0.03753 -0.72725,0.03364 -0.36584,-0.06166 -0.74588,-0.170191 -0.40353,-0.165478 -0.8258,-0.39691 -0.46408,-0.293081 -0.96664,-0.652284 -0.56285,-0.430016 -1.17309,-0.926406 -0.68481,-0.581392 -1.44482,-1.23826 -0.84465,-0.742015 -5.26848,-4.404966 -3.52298,-2.703479 -1.77387,-1.243055 -3.55133,-2.405705 -1.79652,-1.096571 -3.59861,-2.117376 -1.82491,-0.954706 -3.66386,-1.8432996 -1.8627,-0.817665 -3.74373,-1.569156 -1.90952,-0.685285 -3.84668,-1.309237 -1.96568,-0.557761 -3.96456,-1.0586688 -2.03134,-0.4348138 -7.06977,-1.3233847 -4.51307,-0.64753538 -2.11125,-0.1985065 -2.08769,-0.179585 -0.99917,-0.061653 -1.97041,-0.094597 -0.93388,-0.018414 -1.83916,-0.00973 -0.86296,0.028278 -1.69354,0.071086 -0.78353,0.071056 -2.27539,0.2457399 -1.66085,0.21744498 -0.88188,0.137072 -3.65487,0.5860588 -1.90943,0.3639517 -3.83267,0.7703932 -1.84375,0.4206077 -1.82015,0.4301455 -0.86344,0.2173678 -1.69342,0.439511 -0.78367,0.2220986 -5.12764,1.625968 -3.39208,1.257247 -1.68404,0.70893 -3.35431,1.479323 -1.65614,0.8223906 -3.30281,1.696723 -1.62342,0.926387 -3.237174,1.909453 -1.594649,1.025586 -3.162439,2.112759 -1.547959,1.129506 -3.073088,2.306464 -1.501094,1.224103 -2.979013,2.500304 -1.444858,1.318692 -1.71284,1.493477 -1.130543,0.931116 -0.520849,0.396966 -0.999153,0.746689 -0.403154,0.27426 -0.384723,0.250409 -0.164486,0.09462 -0.304849,0.170057 -0.112474,0.04716 -1.45431,0.510461 -0.699025,0.08032 -1.379618,0.05242 -0.6587,-0.151231 -1.331635,-0.41592 -0.661448,-0.382834 -1.318649,-0.883784 -0.665952,-0.623854 -0.877204,-0.973643 -0.511402,-0.727866 -0.22087,-0.392374 -0.76945,-1.62586 -0.210787,-0.846085 -0.183391,-0.845962 -0.042,-0.411171 -0.05622,-0.822404 0.02366,-0.387607 0.07937,-0.760831 0.09404,-0.349835 0.224972,-0.671197 0.169209,-0.292947 0.42206,-0.604907 0.408362,-0.482157 0.253329,-0.278877 0.553457,-0.581322 0.323758,-0.321362 0.675394,-0.666393 0.384727,-0.359271 1.637219,-1.498239 0.952362,-0.822408 1.984597,-1.691999 1.074302,-0.879139 2.200125,-1.777153 1.135747,-0.8837456 2.289452,-1.753548 1.135272,-0.836508 2.251638,-1.640068 1.069574,-0.7326475 2.087638,-1.4131421 0.94339,-0.5860618 6.961948,-4.0363481 4.691414,-2.4150922 2.36927,-1.0728985 4.7618,-2.0513173 2.41143,-0.8885471 4.83648,-1.6872446 2.44931,-0.7089682 4.92093,-1.328099 2.49608,-0.529384 5.01026,-0.973641 2.54294,-0.349703 5.10915,-0.614466 2.58963,-0.170116 5.21223,-0.25998 z"
         fill="#165d98"
         id="path1"
         style="stroke-width:0.472637" /><path
         d="m 201.20039,146.40541 -6.14418,0.13702 -2.46718,0.0337 h -1.52665 l -0.64752,-0.014 -1.21462,-0.0284 -0.43483,-0.0237 -0.40173,-0.0236 -0.15124,-0.0139 -0.25996,-0.0339 -0.0712,-0.0139 -0.35915,-0.23164 -0.33564,-0.31196 -0.21265,-0.24102 -0.46793,-0.53408 -0.27883,-0.35454 -0.59551,-0.75613 -0.34981,-0.46794 -0.7278,-0.98306 -0.416,-0.58139 -0.86487,-1.21467 -0.48683,-0.69479 -1.00681,-1.44622 -0.55281,-0.81296 -1.14853,-1.68253 -0.62393,-0.93114 -2.25917,-3.35575 -1.40379,-2.08899 -0.65699,-0.9689 -1.27603,-1.89532 -0.59082,-0.87904 -1.15794,-1.71101 -0.52937,-0.78931 -1.03984,-1.53604 -0.47738,-0.70423 -0.92631,-1.36587 -0.42545,-0.62397 -0.81755,-1.20995 -0.37343,-0.54348 -0.7231,-1.05873 -0.32139,-0.47738 -0.62864,-0.91216 -0.27886,-0.40647 -0.53882,-0.77987 -0.23623,-0.34497 -0.45858,-0.6523 -0.19375,-0.28355 -0.37801,-0.53882 -0.16548,-0.22687 -0.57657,-0.79873 -0.19385,-0.25523 -0.32614,-0.41593 -0.0896,-0.0896 -0.19844,-0.0713 -0.10847,0.13713 -0.0478,0.18431 -0.0849,0.45845 -0.0337,0.37806 -0.0619,0.86495 -0.0237,0.61447 -0.024,0.64277 -0.0134,0.36865 -0.0189,0.77987 -0.0134,0.43955 -0.0183,0.92157 -0.0134,0.51995 -0.0135,1.0729 -0.0135,0.60027 -0.0134,1.24301 v 0.6853 l -0.0135,1.41325 v 0.77504 l -0.0135,1.60224 v 0.87441 1.79128 0.97834 2.40103 l -0.0134,1.503 -0.0135,0.7042 -0.0134,2.68931 -0.0134,1.16743 -0.024,2.21195 -0.0138,0.94055 -0.0374,1.76764 -0.0237,0.72785 -0.0478,1.3517 -0.0287,0.53883 -0.062,0.97369 -0.0376,0.35917 -0.0757,0.62855 -0.0429,0.19853 -0.0948,0.31671 -0.0527,0.0524 -0.14648,0.0994 -0.13706,0.043 -0.31674,0.0855 -0.21264,0.0375 -0.98306,0.13699 -0.6522,0.0526 -1.39433,0.0856 -0.7846,0.0236 -1.62115,0.0376 h -0.82497 l -1.65892,-0.0188 -0.77519,-0.0236 -1.50766,-0.0657 -0.63335,-0.0526 -0.60966,-0.0566 -0.26473,-0.0336 -0.49627,-0.0656 -0.19852,-0.0374 -0.36388,-0.0807 -0.11822,-0.0478 -0.20323,-0.0897 -0.0337,-0.0526 -0.0567,-0.26938 -0.0338,-0.36394 -0.0186,-0.2741 -0.0286,-0.61448 -0.0139,-0.40647 -0.0285,-0.87433 -0.0135,-0.53413 -0.0237,-1.14378 -0.0134,-0.67585 -0.0185,-1.42264 -0.0135,-0.82241 -0.0142,-1.71095 -0.0134,-0.96417 -0.0135,-2.00871 -0.0134,-1.11538 -0.0134,-2.31598 -0.0135,-1.27135 v -2.62783 -1.43681 -2.95399 l 0.0135,-1.60226 0.0134,-3.2848 0.0134,-1.77242 0.0135,-3.62983 0.0134,-1.94253 0.0135,-3.98435 0.0135,-2.12212 0.0186,-4.343524 0.0135,-2.31122 0.0238,-4.712186 0.0134,-2.495531 0.0285,-5.78974 h 15.4978 l 6.83431,10.043451 1.47465,2.164706 1.03033,1.52189 0.53411,0.78456 2.15996,3.180884 1.05869,1.56443 1.05397,1.55495 0.50573,0.7468 0.99253,1.46984 0.46317,0.68535 0.90746,1.3376 0.40649,0.60495 0.77986,1.15797 0.33556,0.49622 1.92365,2.77915 0.59075,0.81767 0.26942,0.37331 0.53407,0.71375 0.23634,0.30723 0.45845,0.58607 0.1938,0.24105 0.37338,0.43947 0.14649,0.16073 0.26474,0.27883 0.0947,0.0713 0.15121,0.0947 0.0238,-0.0238 0.0847,-0.42064 0.0528,-0.605 0.0285,-0.44892 0.0528,-0.99263 0.024,-0.6238 0.0527,-1.33285 0.0235,-0.77988 0.0431,-1.6258 0.0238,-0.90282 0.0374,-1.87162 0.0186,-1.01143 0.0337,-2.07019 0.014,-1.09646 0.0238,-2.22139 0.0134,-1.15324 0.12307,-16.759696 14.42004,-0.25996 z"
         fill="#2c9afb"
         id="path2"
         style="stroke-width:0.472637" /></g></g></svg>
